<svg height="1100" width="800" xmlns="http://www.w3.org/2000/svg">
<title>Your Diagram Title</title>
<!-- Generated with SankeyMATIC: 11/04/2025, 11:56:01 -->
<rect height="1100" width="800" fill="#ffffff"></rect>
<g transform="translate(145.12785,18)">
<g id="sankey_flows">
<path id="flow2" d="M12 561.70973C86.57023 561.70973 156.75398 556.97104 231.32421 556.97104" fill="none" stroke-width="168.99331" stroke="#bcbd22" opacity="0.45"><title>10-Day Campers → Budget: £344,500</title></path>
<path id="flow16" d="M243.32421 596.84414C317.89444 596.84414 388.07818 710.5053 462.64841 710.5053" fill="none" stroke-width="58.25241" stroke="#ff7f0e" opacity="0.45"><title>Budget → People Costs: £118,750</title></path>
<path id="flow8" d="M243.32421 477.53094C317.89444 477.53094 388.07818 343.90184 462.64841 343.90184" fill="none" stroke-width="41.30403" stroke="#9467bd" opacity="0.45"><title>Budget → Food and Food Infrastructure: £84,200</title></path>
<path id="flow1" d="M12 428.11401C86.57023 428.11401 156.75398 457.02216 231.32421 457.02216" fill="none" stroke-width="30.90444" stroke="#7f7f7f" opacity="0.45"><title>7-Day Campers → Budget: £63,000</title></path>
<path id="flow14" d="M243.32421 540.94635C317.89444 540.94635 388.07818 578.19979 462.64841 578.19979" fill="none" stroke-width="28.03474" stroke="#d62728" opacity="0.45"><title>Budget → Site Services: £57,150</title></path>
<path id="flow19" d="M243.32421 649.66179C316.74771 649.66179 385.85219 926.14485 459.2757 926.14485" fill="none" stroke-width="17.95008" stroke="#9467bd" opacity="0.45"><title>Budget → Surplus: £36,592</title></path>
<path id="flow7" d="M243.32421 448.93207C317.89444 448.93207 388.07818 227.65371 462.64841 227.65371" fill="none" stroke-width="15.89371" stroke="#d62728" opacity="0.45"><title>Budget → Site Cost: £32,400</title></path>
<path id="flow15" d="M243.32421 561.34083C317.89444 561.34083 388.07818 632.24112 462.64841 632.24112" fill="none" stroke-width="12.75421" stroke="#1f77b4" opacity="0.45"><title>Budget → Programme: £26,000</title></path>
<path id="flow3" d="M12 685.98506C86.57023 685.98506 156.75398 647.59953 231.32421 647.59953" fill="none" stroke-width="12.26367" stroke="#17becf" opacity="0.45"><title>Grants → Budget: £25,000</title></path>
<path id="flow17" d="M243.32421 632.10218C317.89444 632.10218 388.07818 803.29616 462.64841 803.29616" fill="none" stroke-width="12.26367" stroke="#2ca02c" opacity="0.45"><title>Budget → Subsidised Places: £25,000</title></path>
<path id="flow0" d="M12 373.12838C86.57023 373.12838 156.75398 435.68339 231.32421 435.68339" fill="none" stroke-width="11.77312" stroke="#e377c2" opacity="0.45"><title>3-Day Campers → Budget: £24,000</title></path>
<path id="flow6" d="M243.32421 435.39102C317.5122 435.39102 387.33619 155.46862 461.52418 155.46862" fill="none" stroke-width="11.18839" stroke="#2ca02c" opacity="0.45"><title>Budget → Admin and Central Costs: £22,808</title></path>
<path id="flow12" d="M243.32421 515.15586C317.89444 515.15586 388.07818 492.11666 462.64841 492.11666" fill="none" stroke-width="10.79203" stroke="#bcbd22" opacity="0.45"><title>Budget → Toilets: £22,000</title></path>
<path id="flow13" d="M243.32421 523.74043C317.89444 523.74043 388.07818 527.34703 462.64841 527.34703" fill="none" stroke-width="6.37711" stroke="#17becf" opacity="0.45"><title>Budget → Showers: £13,000</title></path>
<path id="flow11" d="M243.32421 507.08637C317.89444 507.08637 388.07818 455.40285 462.64841 455.40285" fill="none" stroke-width="5.34696" stroke="#7f7f7f" opacity="0.45"><title>Budget → Organisation Meetings: £10,900</title></path>
<path id="flow4" d="M12 728.14289C86.57023 728.14289 156.75398 656.11051 231.32421 656.11051" fill="none" stroke-width="4.7583" stroke="#1f77b4" opacity="0.45"><title>Cafés and Bar Income → Budget: £9,700</title></path>
<path id="flow10" d="M243.32421 502.03374C317.89444 502.03374 388.07818 420.69587 462.64841 420.69587" fill="none" stroke-width="4.7583" stroke="#e377c2" opacity="0.45"><title>Budget → Café and Bar Expenses: £9,700</title></path>
<path id="flow18" d="M243.32421 639.46038C317.89444 639.46038 388.07818 874.30189 462.64841 874.30189" fill="none" stroke-width="2.45273" stroke="#d62728" opacity="0.45"><title>Budget → Contingency: £5,000</title></path>
<path id="flow9" d="M243.32421 498.91877C317.89444 498.91877 388.07818 386.94265 462.64841 386.94265" fill="none" stroke-width="1.47164" stroke="#8c564b" opacity="0.45"><title>Budget → Pre-Camp: £3,000</title></path>
<path id="flow5" d="M12 764.24247C86.57023 764.24247 156.75398 658.56325 231.32421 658.56325" fill="none" stroke-width="1" stroke="#ff7f0e" opacity="0.45"><title>Donations → Budget: £300</title></path>
</g>
<g id="sankey_nodes">
<g class="node">
<rect id="r0" class="for_r0" x="0" y="367.24182" height="11.77312" width="12" fill="#e377c2" fill-opacity="1"><title>3-Day Campers:
£24,000</title></rect>
</g>
<g class="node">
<rect id="r1" class="for_r1" x="231.32421" y="429.79683" height="228.84" width="12" fill="#057" fill-opacity="1"><title>Budget:
£466,500</title></rect>
</g>
<g class="node">
<rect id="r2" class="for_r2" x="0" y="412.66179" height="30.90444" width="12" fill="#7f7f7f" fill-opacity="1"><title>7-Day Campers:
£63,000</title></rect>
</g>
<g class="node">
<rect id="r3" class="for_r3" x="0" y="477.21307" height="168.99331" width="12" fill="#bcbd22" fill-opacity="1"><title>10-Day Campers:
£344,500</title></rect>
</g>
<g class="node">
<rect id="r4" class="for_r4" x="0" y="679.85323" height="12.26367" width="12" fill="#17becf" fill-opacity="1"><title>Grants:
£25,000</title></rect>
</g>
<g class="node">
<rect id="r5" class="for_r5" x="0" y="725.76374" height="4.7583" width="12" fill="#1f77b4" fill-opacity="1"><title>Cafés and Bar Income:
£9,700</title></rect>
</g>
<g class="node">
<rect id="r6" class="for_r6" x="0" y="764.16889" height="0.14716" width="12" fill="#ff7f0e" fill-opacity="1"><title>Donations:
£300</title></rect>
</g>
<g class="node">
<rect id="r7" class="for_r7" x="462.64841" y="197.8755" height="11.18839" width="12" fill="#2ca02c" fill-opacity="1" transform="translate(-1.12424,-48.00107)"><title>Admin and Central Costs:
£22,808</title></rect>
</g>
<g class="node">
<rect id="r8" class="for_r8" x="462.64841" y="242.71073" height="15.89371" width="12" fill="#d62728" fill-opacity="1" transform="translate(0,-23.00388)"><title>Site Cost:
£32,400</title></rect>
</g>
<g class="node">
<rect id="r9" class="for_r9" x="462.64841" y="292.25129" height="41.30403" width="12" fill="#9467bd" fill-opacity="1" transform="translate(0,30.99854)"><title>Food and Food Infrastructure:
£84,200</title></rect>
</g>
<g class="node">
<rect id="r10" class="for_r10" x="462.64841" y="367.20216" height="1.47164" width="12" fill="#8c564b" fill-opacity="1" transform="translate(0,19.00467)"><title>Pre-Camp:
£3,000</title></rect>
</g>
<g class="node">
<rect id="r11" class="for_r11" x="462.64841" y="402.32065" height="4.7583" width="12" fill="#e377c2" fill-opacity="1" transform="translate(0,15.99607)"><title>Café and Bar Expenses:
£9,700</title></rect>
</g>
<g class="node">
<rect id="r12" class="for_r12" x="462.64841" y="440.7258" height="5.34696" width="12" fill="#7f7f7f" fill-opacity="1" transform="translate(0,12.00358)"><title>Organisation Meetings:
£10,900</title></rect>
</g>
<g class="node">
<rect id="r13" class="for_r13" x="462.64841" y="479.7196" height="10.79203" width="12" fill="#bcbd22" fill-opacity="1" transform="translate(0,7.00105)"><title>Toilets:
£22,000</title></rect>
</g>
<g class="node">
<rect id="r14" class="for_r14" x="462.64841" y="524.15847" height="6.37711" width="12" fill="#17becf" fill-opacity="1"><title>Showers:
£13,000</title></rect>
</g>
<g class="node">
<rect id="r15" class="for_r15" x="462.64841" y="564.18243" height="28.03474" width="12" fill="#d62728" fill-opacity="1"><title>Site Services:
£57,150</title></rect>
</g>
<g class="node">
<rect id="r16" class="for_r16" x="462.64841" y="625.86401" height="12.75421" width="12" fill="#1f77b4" fill-opacity="1"><title>Programme:
£26,000</title></rect>
</g>
<g class="node">
<rect id="r17" class="for_r17" x="462.64841" y="672.26507" height="58.25241" width="12" fill="#ff7f0e" fill-opacity="1" transform="translate(0,9.11403)"><title>People Costs:
£118,750</title></rect>
</g>
<g class="node">
<rect id="r18" class="for_r18" x="462.64841" y="764.16433" height="12.26367" width="12" fill="#2ca02c" fill-opacity="1" transform="translate(0,33)"><title>Subsidised Places:
£25,000</title></rect>
</g>
<g class="node">
<rect id="r19" class="for_r19" x="462.64841" y="810.07484" height="2.45273" width="12" fill="#d62728" fill-opacity="1" transform="translate(0,63.00068)"><title>Contingency:
£5,000</title></rect>
</g>
<g class="node">
<rect id="r20" class="for_r20" x="462.64841" y="846.17442" height="17.95008" width="12" fill="#9467bd" fill-opacity="1" transform="translate(-3.37271,70.99539)"><title>Surplus:
£36,592</title></rect>
</g>
</g>
<g id="sankey_labels" font-family="sans-serif" font-size="16px" fill="#000000">
<text text-anchor="middle" x="254.87215" y="1076" font-size="13.20254px" font-weight="400" fill="#336781">Made at SankeyMATIC.com</text>
<rect id="label0_bg" class="for_r0" x="-89.51848" y="355.61786" width="88.29244" height="33.98108" rx="4" fill="#fff" fill-opacity="0.75" stroke="none" stroke-width="0" stroke-opacity="0"></rect>
<text id="label0" class="for_r0" text-anchor="end" x="-6.29754" y="373.12838" font-weight="400" font-size="11.16602px" dy="-4.51054">3-Day Campers<tspan x="-6.29754" dy="14.98108" font-weight="400" font-size="13.64736px">£24,000</tspan></text>
<rect id="label1_bg" class="for_r1" x="186.77653" y="518.44183" width="101.49516" height="51.15002" rx="4" fill="#fff" fill-opacity="0.75" stroke="none" stroke-width="0" stroke-opacity="0"></rect>
<text id="label1" class="for_r1" text-anchor="middle" x="237.32421" y="544.21683" font-weight="400" font-size="18px" dy="-6.77501">Budget<tspan x="237.32421" dy="24.15" font-weight="400" font-size="22px">£466,500</tspan></text>
<rect id="label2_bg" class="for_r2" x="-93.70598" y="409.48941" width="92.19242" height="35.78922" rx="4" fill="#fff" fill-opacity="0.75" stroke="none" stroke-width="0" stroke-opacity="0"></rect>
<text id="label2" class="for_r2" text-anchor="end" x="-6.29754" y="428.11401" font-weight="400" font-size="11.76834px" dy="-4.62459">7-Day Campers<tspan x="-6.29754" dy="15.78919" font-weight="400" font-size="14.38353px">£63,000</tspan></text>
<rect id="label3_bg" class="for_r3" x="-133.12786" y="537.61865" width="131.54449" height="46.62207" rx="4" fill="#fff" fill-opacity="0.75" stroke="none" stroke-width="0" stroke-opacity="0"></rect>
<text id="label3" class="for_r3" text-anchor="end" x="-6.29754" y="561.70973" font-weight="400" font-size="16.11583px" dy="-6.09104">10-Day Campers<tspan x="-6.29754" dy="21.62207" font-weight="400" font-size="19.69713px">£344,500</tspan></text>
<rect id="label4_bg" class="for_r4" x="-61.75285" y="668.46417" width="60.51853" height="34.00177" rx="4" fill="#fff" fill-opacity="0.75" stroke="none" stroke-width="0" stroke-opacity="0"></rect>
<text id="label4" class="for_r4" text-anchor="end" x="-6.29754" y="685.98506" font-weight="400" font-size="11.18147px" dy="-4.52089">Grants<tspan x="-6.29754" dy="15.0018" font-weight="400" font-size="13.66624px">£25,000</tspan></text>
<rect id="label5_bg" class="for_r5" x="-120.2216" y="710.78052" width="118.58891" height="33.68475" rx="4" fill="#fff" fill-opacity="0.75" stroke="none" stroke-width="0" stroke-opacity="0"></rect>
<text id="label5" class="for_r5" text-anchor="end" x="-6.29754" y="728.14289" font-weight="400" font-size="10.94517px" dy="-4.36238">Cafés and Bar Income<tspan x="-6.29754" dy="14.68477" font-weight="400" font-size="13.37743px">£9,700</tspan></text>
<rect id="label6_bg" class="for_r6" x="-60.00285" y="746.97748" width="58.96113" height="33.48999" rx="4" fill="#fff" fill-opacity="0.75" stroke="none" stroke-width="0" stroke-opacity="0"></rect>
<text id="label6" class="for_r6" text-anchor="end" x="-6.29754" y="764.24247" font-weight="400" font-size="10.8px" dy="-4.265">Donations<tspan x="-6.29754" dy="14.49" font-weight="400" font-size="13.2px">£300</tspan></text>
<rect id="label7_bg" class="for_r7" x="475.28111" y="185.97151" width="134.99391" height="33.95639" rx="4" fill="#fff" fill-opacity="0.75" stroke="none" stroke-width="0" stroke-opacity="0" transform="translate(-1.12424,-48.00107)"></rect>
<text id="label7" class="for_r7" text-anchor="start" x="480.94595" y="203.46969" font-weight="400" font-size="11.14761px" dy="-4.49818" transform="translate(-1.12424,-48.00107)">Admin and Central Costs<tspan x="480.94595" dy="14.95638" font-weight="400" font-size="13.62486px">£22,808</tspan></text>
<rect id="label8_bg" class="for_r8" x="475.28111" y="233.06001" width="60.93812" height="34.15514" rx="4" fill="#fff" fill-opacity="0.75" stroke="none" stroke-width="0" stroke-opacity="0" transform="translate(0,-23.00388)"></rect>
<text id="label8" class="for_r8" text-anchor="start" x="480.94595" y="250.65759" font-weight="400" font-size="11.29575px" dy="-4.59758" transform="translate(0,-23.00388)">Site Cost<tspan x="480.94595" dy="15.15514" font-weight="400" font-size="13.80592px">£32,400</tspan></text>
<rect id="label9_bg" class="for_r9" x="475.28111" y="294.84906" width="167.59107" height="36.22845" rx="4" fill="#fff" fill-opacity="0.75" stroke="none" stroke-width="0" stroke-opacity="0" transform="translate(0,30.99854)"></rect>
<text id="label9" class="for_r9" text-anchor="start" x="480.94595" y="312.9033" font-weight="400" font-size="12.09575px" dy="-4.05423" transform="translate(0,30.99854)">Food and Food Infrastructure<tspan x="480.94595" dy="16.22847" font-weight="400" font-size="14.7837px">£84,200</tspan></text>
<rect id="label10_bg" class="for_r10" x="475.28111" y="350.64502" width="61.0948" height="33.54593" rx="4" fill="#fff" fill-opacity="0.75" stroke="none" stroke-width="0" stroke-opacity="0" transform="translate(0,19.00467)"></rect>
<text id="label10" class="for_r10" text-anchor="start" x="480.94595" y="367.93798" font-weight="400" font-size="10.8417px" dy="-4.29298" transform="translate(0,19.00467)">Pre-Camp<tspan x="480.94595" dy="14.54595" font-weight="400" font-size="13.25097px">£3,000</tspan></text>
<rect id="label11_bg" class="for_r11" x="475.28111" y="387.33743" width="126.80787" height="33.68475" rx="4" fill="#fff" fill-opacity="0.75" stroke="none" stroke-width="0" stroke-opacity="0" transform="translate(0,15.99607)"></rect>
<text id="label11" class="for_r11" text-anchor="start" x="480.94595" y="404.6998" font-weight="400" font-size="10.94517px" dy="-4.36238" transform="translate(0,15.99607)">Café and Bar Expenses<tspan x="480.94595" dy="14.68477" font-weight="400" font-size="13.37743px">£9,700</tspan></text>
<rect id="label12_bg" class="for_r12" x="475.28111" y="426.02448" width="120.90833" height="33.70963" rx="4" fill="#fff" fill-opacity="0.75" stroke="none" stroke-width="0" stroke-opacity="0" transform="translate(0,12.00358)"></rect>
<text id="label12" class="for_r12" text-anchor="start" x="480.94595" y="443.39928" font-weight="400" font-size="10.96371px" dy="-4.37483" transform="translate(0,12.00358)">Organisation Meetings<tspan x="480.94595" dy="14.70964" font-weight="400" font-size="13.40009px">£10,900</tspan></text>
<rect id="label13_bg" class="for_r13" x="475.28111" y="467.62579" width="60.3263" height="33.93964" rx="4" fill="#fff" fill-opacity="0.75" stroke="none" stroke-width="0" stroke-opacity="0" transform="translate(0,7.00105)"></rect>
<text id="label13" class="for_r13" text-anchor="start" x="480.94595" y="485.11561" font-weight="400" font-size="11.13514px" dy="-4.48982" transform="translate(0,7.00105)">Toilets<tspan x="480.94595" dy="14.93964" font-weight="400" font-size="13.60961px">£22,000</tspan></text>
<rect id="label14_bg" class="for_r14" x="475.28111" y="509.95044" width="59.27638" height="33.75317" rx="4" fill="#fff" fill-opacity="0.75" stroke="none" stroke-width="0" stroke-opacity="0"></rect>
<text id="label14" class="for_r14" text-anchor="start" x="480.94595" y="527.34703" font-weight="400" font-size="10.99614px" dy="-4.39659">Showers<tspan x="480.94595" dy="14.75315" font-weight="400" font-size="13.43973px">£13,000</tspan></text>
<rect id="label15_bg" class="for_r15" x="475.28111" y="559.6358" width="78.99415" height="35.66797" rx="4" fill="#fff" fill-opacity="0.75" stroke="none" stroke-width="0" stroke-opacity="0"></rect>
<text id="label15" class="for_r15" text-anchor="start" x="480.94595" y="578.19979" font-weight="400" font-size="11.67799px" dy="-4.56398">Site Services<tspan x="480.94595" dy="15.66797" font-weight="400" font-size="14.2731px">£57,150</tspan></text>
<rect id="label16_bg" class="for_r16" x="475.28111" y="614.7099" width="69.18263" height="34.02252" rx="4" fill="#fff" fill-opacity="0.75" stroke="none" stroke-width="0" stroke-opacity="0"></rect>
<text id="label16" class="for_r16" text-anchor="start" x="480.94595" y="632.24112" font-weight="400" font-size="11.19691px" dy="-4.53126">Programme<tspan x="480.94595" dy="15.02252" font-weight="400" font-size="13.68511px">£26,000</tspan></text>
<rect id="label17_bg" class="for_r17" x="475.28111" y="682.97913" width="86.48011" height="36.94434" rx="4" fill="#fff" fill-opacity="0.75" stroke="none" stroke-width="0" stroke-opacity="0" transform="translate(0,9.11403)"></rect>
<text id="label17" class="for_r17" text-anchor="start" x="480.94595" y="701.39127" font-weight="400" font-size="12.62934px" dy="-4.4122" transform="translate(0,9.11403)">People Costs<tspan x="480.94595" dy="16.94437" font-weight="400" font-size="15.43586px">£118,750</tspan></text>
<rect id="label18_bg" class="for_r18" x="475.28111" y="752.77527" width="102.49549" height="34.00177" rx="4" fill="#fff" fill-opacity="0.75" stroke="none" stroke-width="0" stroke-opacity="0" transform="translate(0,33)"></rect>
<text id="label18" class="for_r18" text-anchor="start" x="480.94595" y="770.29616" font-weight="400" font-size="11.18147px" dy="-4.52089" transform="translate(0,33)">Subsidised Places<tspan x="480.94595" dy="15.0018" font-weight="400" font-size="13.66624px">£25,000</tspan></text>
<rect id="label19_bg" class="for_r19" x="475.28111" y="793.98749" width="71.72169" height="33.5874" rx="4" fill="#fff" fill-opacity="0.75" stroke="none" stroke-width="0" stroke-opacity="0" transform="translate(0,63.00068)"></rect>
<text id="label19" class="for_r19" text-anchor="start" x="480.94595" y="811.30121" font-weight="400" font-size="10.87259px" dy="-4.3137" transform="translate(0,63.00068)">Contingency<tspan x="480.94595" dy="14.58739" font-weight="400" font-size="13.28872px">£5,000</tspan></text>
<rect id="label20_bg" class="for_r20" x="475.28111" y="837.50848" width="61.18281" height="34.242" rx="4" fill="#fff" fill-opacity="0.75" stroke="none" stroke-width="0" stroke-opacity="0" transform="translate(-3.37271,70.99539)"></rect>
<text id="label20" class="for_r20" text-anchor="start" x="480.94595" y="855.14946" font-weight="400" font-size="11.36049px" dy="-4.641" transform="translate(-3.37271,70.99539)">Surplus<tspan x="480.94595" dy="15.242" font-weight="400" font-size="13.88505px">£36,592</tspan></text>
</g>
</g></svg>