<svg height="1100" width="800" xmlns="http://www.w3.org/2000/svg">
<title>Your Diagram Title</title>
<!-- Generated with SankeyMATIC: 10/04/2025, 16:02:30 -->
<rect height="1100" width="800" fill="#ffffff"></rect>
<g transform="translate(166.64348,18)">
<g id="sankey_flows">
<path id="flow2" d="M12 576.2148C77.87137 576.2148 139.86796 571.07632 205.73934 571.07632" fill="none" stroke-width="168.40622" stroke="#bcbd22" opacity="0.45"><title>10-Day Campers → Budget: £344,500</title></path>
<path id="flow16" d="M217.73934 616.92143C283.61071 616.92143 345.6073 744.49714 411.47867 744.49714" fill="none" stroke-width="70.2711" stroke="#ff7f0e" opacity="0.45"><title>Budget → People Costs: £143,750</title></path>
<path id="flow8" d="M217.73934 491.9122C283.61071 491.9122 345.6073 349.60366 411.47867 349.60366" fill="none" stroke-width="41.16053" stroke="#9467bd" opacity="0.45"><title>Budget → Food and Food Infrastructure: £84,200</title></path>
<path id="flow1" d="M12 440.12762C77.87137 440.12762 139.86796 471.47467 205.73934 471.47467" fill="none" stroke-width="30.79707" stroke="#7f7f7f" opacity="0.45"><title>7-Day Campers → Budget: £63,000</title></path>
<path id="flow14" d="M217.73934 555.1073C283.61071 555.1073 345.6073 600.71195 411.47867 600.71195" fill="none" stroke-width="27.93735" stroke="#d62728" opacity="0.45"><title>Budget → Site Services: £57,150</title></path>
<path id="flow18" d="M217.73934 663.44506C282.59071 663.44506 343.6273 925.99183 408.47867 925.99183" fill="none" stroke-width="17.88772" stroke="#d62728" opacity="0.45"><title>Budget → Surplus: £36,592</title></path>
<path id="flow7" d="M217.73934 463.41268C283.61071 463.41268 345.6073 230.61861 411.47867 230.61861" fill="none" stroke-width="15.8385" stroke="#d62728" opacity="0.45"><title>Budget → Site Cost: £32,400</title></path>
<path id="flow15" d="M217.73934 575.43093C283.61071 575.43093 345.6073 657.52111 411.47867 657.52111" fill="none" stroke-width="12.7099" stroke="#1f77b4" opacity="0.45"><title>Budget → Programme: £26,000</title></path>
<path id="flow3" d="M12 703.01397C77.87137 703.01397 139.86796 661.38996 205.73934 661.38996" fill="none" stroke-width="12.22106" stroke="#17becf" opacity="0.45"><title>Grants → Budget: £25,000</title></path>
<path id="flow0" d="M12 382.37744C77.87137 382.37744 139.86796 450.21003 205.73934 450.21003" fill="none" stroke-width="11.73222" stroke="#e377c2" opacity="0.45"><title>3-Day Campers → Budget: £24,000</title></path>
<path id="flow6" d="M217.73934 449.91868C283.27071 449.91868 344.9473 155.63907 410.47867 155.63907" fill="none" stroke-width="11.14952" stroke="#2ca02c" opacity="0.45"><title>Budget → Admin and Central Costs: £22,808</title></path>
<path id="flow12" d="M217.73934 529.40641C283.61071 529.40641 345.6073 509.04 411.47867 509.04" fill="none" stroke-width="10.75453" stroke="#bcbd22" opacity="0.45"><title>Budget → Toilets: £22,000</title></path>
<path id="flow13" d="M217.73934 537.96116C283.61071 537.96116 345.6073 547.08027 411.47867 547.08027" fill="none" stroke-width="6.35495" stroke="#17becf" opacity="0.45"><title>Budget → Showers: £13,000</title></path>
<path id="flow11" d="M217.73934 521.36495C283.61071 521.36495 345.6073 469.51301 411.47867 469.51301" fill="none" stroke-width="5.32838" stroke="#7f7f7f" opacity="0.45"><title>Budget → Organisation Meetings: £10,900</title></path>
<path id="flow4" d="M12 747.98092C77.87137 747.98092 139.86796 669.87138 205.73934 669.87138" fill="none" stroke-width="4.74177" stroke="#1f77b4" opacity="0.45"><title>Cafés and Bar Income → Budget: £9,700</title></path>
<path id="flow10" d="M217.73934 516.32988C283.61071 516.32988 345.6073 431.9924 411.47867 431.9924" fill="none" stroke-width="4.74177" stroke="#e377c2" opacity="0.45"><title>Budget → Café and Bar Expenses: £9,700</title></path>
<path id="flow17" d="M217.73934 653.27909C283.61071 653.27909 345.6073 871.34033 411.47867 871.34033" fill="none" stroke-width="2.44421" stroke="#2ca02c" opacity="0.45"><title>Budget → Contingency: £5,000</title></path>
<path id="flow9" d="M217.73934 513.22573C283.61071 513.22573 345.6073 395.40272 411.47867 395.40272" fill="none" stroke-width="1.46653" stroke="#8c564b" opacity="0.45"><title>Budget → Pre-Camp: £3,000</title></path>
<path id="flow5" d="M12 786.91066C77.87137 786.91066 139.86796 672.31559 205.73934 672.31559" fill="none" stroke-width="1" stroke="#ff7f0e" opacity="0.45"><title>Donations → Budget: £300</title></path>
</g>
<g id="sankey_nodes">
<g class="node">
<rect id="r0" class="for_r0" x="0" y="376.51133" height="11.73222" width="12" fill="#e377c2" fill-opacity="1"><title>3-Day Campers:
£24,000</title></rect>
</g>
<g class="node">
<rect id="r1" class="for_r1" x="205.73934" y="444.34392" height="228.045" width="12" fill="#057" fill-opacity="1"><title>Budget:
£466,500</title></rect>
</g>
<g class="node">
<rect id="r2" class="for_r2" x="0" y="424.72908" height="30.79707" width="12" fill="#7f7f7f" fill-opacity="1"><title>7-Day Campers:
£63,000</title></rect>
</g>
<g class="node">
<rect id="r3" class="for_r3" x="0" y="492.01169" height="168.40622" width="12" fill="#bcbd22" fill-opacity="1"><title>10-Day Campers:
£344,500</title></rect>
</g>
<g class="node">
<rect id="r4" class="for_r4" x="0" y="696.90344" height="12.22106" width="12" fill="#17becf" fill-opacity="1"><title>Grants:
£25,000</title></rect>
</g>
<g class="node">
<rect id="r5" class="for_r5" x="0" y="745.61003" height="4.74177" width="12" fill="#1f77b4" fill-opacity="1"><title>Cafés and Bar Income:
£9,700</title></rect>
</g>
<g class="node">
<rect id="r6" class="for_r6" x="0" y="786.83733" height="0.14665" width="12" fill="#ff7f0e" fill-opacity="1"><title>Donations:
£300</title></rect>
</g>
<g class="node">
<rect id="r7" class="for_r7" x="411.47867" y="198.06431" height="11.14952" width="12" fill="#2ca02c" fill-opacity="1" transform="translate(-1,-48)"><title>Admin and Central Costs:
£22,808</title></rect>
</g>
<g class="node">
<rect id="r8" class="for_r8" x="411.47867" y="245.69936" height="15.8385" width="12" fill="#d62728" fill-opacity="1" transform="translate(0,-23)"><title>Site Cost:
£32,400</title></rect>
</g>
<g class="node">
<rect id="r9" class="for_r9" x="411.47867" y="298.02339" height="41.16053" width="12" fill="#9467bd" fill-opacity="1" transform="translate(0,31)"><title>Food and Food Infrastructure:
£84,200</title></rect>
</g>
<g class="node">
<rect id="r10" class="for_r10" x="411.47867" y="375.66945" height="1.46653" width="12" fill="#8c564b" fill-opacity="1" transform="translate(0,19)"><title>Pre-Camp:
£3,000</title></rect>
</g>
<g class="node">
<rect id="r11" class="for_r11" x="411.47867" y="413.62151" height="4.74177" width="12" fill="#e377c2" fill-opacity="1" transform="translate(0,16)"><title>Café and Bar Expenses:
£9,700</title></rect>
</g>
<g class="node">
<rect id="r12" class="for_r12" x="411.47867" y="454.84882" height="5.32838" width="12" fill="#7f7f7f" fill-opacity="1" transform="translate(0,12)"><title>Organisation Meetings:
£10,900</title></rect>
</g>
<g class="node">
<rect id="r13" class="for_r13" x="411.47867" y="496.66273" height="10.75453" width="12" fill="#bcbd22" fill-opacity="1" transform="translate(0,7)"><title>Toilets:
£22,000</title></rect>
</g>
<g class="node">
<rect id="r14" class="for_r14" x="411.47867" y="543.90279" height="6.35495" width="12" fill="#17becf" fill-opacity="1"><title>Showers:
£13,000</title></rect>
</g>
<g class="node">
<rect id="r15" class="for_r15" x="411.47867" y="586.74328" height="27.93735" width="12" fill="#d62728" fill-opacity="1"><title>Site Services:
£57,150</title></rect>
</g>
<g class="node">
<rect id="r16" class="for_r16" x="411.47867" y="651.16615" height="12.7099" width="12" fill="#1f77b4" fill-opacity="1"><title>Programme:
£26,000</title></rect>
</g>
<g class="node">
<rect id="r17" class="for_r17" x="411.47867" y="700.36159" height="70.2711" width="12" fill="#ff7f0e" fill-opacity="1" transform="translate(0,9)"><title>People Costs:
£143,750</title></rect>
</g>
<g class="node">
<rect id="r18" class="for_r18" x="411.47867" y="807.11822" height="2.44421" width="12" fill="#2ca02c" fill-opacity="1" transform="translate(0,63)"><title>Contingency:
£5,000</title></rect>
</g>
<g class="node">
<rect id="r19" class="for_r19" x="411.47867" y="846.04796" height="17.88772" width="12" fill="#d62728" fill-opacity="1" transform="translate(-3,71)"><title>Surplus:
£36,592</title></rect>
</g>
</g>
<g id="sankey_labels" font-family="sans-serif" font-size="16px" fill="#000000">
<text text-anchor="middle" x="233.35652" y="1076" font-size="13.20254px" font-weight="400" fill="#336781">Made at SankeyMATIC.com</text>
<rect id="label0_bg" class="for_r0" x="-112.19035" y="360.85745" width="110.76383" height="42.31998" rx="4" fill="#fff" fill-opacity="0.75" stroke="none" stroke-width="0" stroke-opacity="0"></rect>
<text id="label0" class="for_r0" text-anchor="end" x="-6.29754" y="382.37744" font-weight="400" font-size="14.4px" dy="-5.52">3-Day Campers<tspan x="-6.29754" dy="19.32" font-weight="400" font-size="17.6px">£24,000</tspan></text>
<rect id="label1_bg" class="for_r1" x="169.36357" y="536.84637" width="84.34898" height="42.32001" rx="4" fill="#fff" fill-opacity="0.75" stroke="none" stroke-width="0" stroke-opacity="0"></rect>
<text id="label1" class="for_r1" text-anchor="middle" x="211.73934" y="558.36642" font-weight="400" font-size="14.4px" dy="-5.52">Budget<tspan x="211.73934" dy="19.32" font-weight="400" font-size="17.6px">£466,500</tspan></text>
<rect id="label2_bg" class="for_r2" x="-112.19035" y="418.60764" width="110.76383" height="42.31998" rx="4" fill="#fff" fill-opacity="0.75" stroke="none" stroke-width="0" stroke-opacity="0"></rect>
<text id="label2" class="for_r2" text-anchor="end" x="-6.29754" y="440.12762" font-weight="400" font-size="14.4px" dy="-5.52">7-Day Campers<tspan x="-6.29754" dy="19.32" font-weight="400" font-size="17.6px">£63,000</tspan></text>
<rect id="label3_bg" class="for_r3" x="-120.20598" y="554.69476" width="118.77085" height="42.32001" rx="4" fill="#fff" fill-opacity="0.75" stroke="none" stroke-width="0" stroke-opacity="0"></rect>
<text id="label3" class="for_r3" text-anchor="end" x="-6.29754" y="576.2148" font-weight="400" font-size="14.4px" dy="-5.52">10-Day Campers<tspan x="-6.29754" dy="19.32" font-weight="400" font-size="17.6px">£344,500</tspan></text>
<rect id="label4_bg" class="for_r4" x="-75.98723" y="681.49396" width="74.56071" height="42.32001" rx="4" fill="#fff" fill-opacity="0.75" stroke="none" stroke-width="0" stroke-opacity="0"></rect>
<text id="label4" class="for_r4" text-anchor="end" x="-6.29754" y="703.01397" font-weight="400" font-size="14.4px" dy="-5.52">Grants<tspan x="-6.29754" dy="19.32" font-weight="400" font-size="17.6px">£25,000</tspan></text>
<rect id="label5_bg" class="for_r5" x="-154.64348" y="726.46088" width="153.20994" height="42.32001" rx="4" fill="#fff" fill-opacity="0.75" stroke="none" stroke-width="0" stroke-opacity="0"></rect>
<text id="label5" class="for_r5" text-anchor="end" x="-6.29754" y="747.98092" font-weight="400" font-size="14.4px" dy="-5.52">Cafés and Bar Income<tspan x="-6.29754" dy="19.32" font-weight="400" font-size="17.6px">£9,700</tspan></text>
<rect id="label6_bg" class="for_r6" x="-76.20598" y="765.39063" width="74.78184" height="42.32001" rx="4" fill="#fff" fill-opacity="0.75" stroke="none" stroke-width="0" stroke-opacity="0"></rect>
<text id="label6" class="for_r6" text-anchor="end" x="-6.29754" y="786.91066" font-weight="400" font-size="14.4px" dy="-5.52">Donations<tspan x="-6.29754" dy="19.32" font-weight="400" font-size="17.6px">£300</tspan></text>
<rect id="label7_bg" class="for_r7" x="424.11137" y="182.11906" width="170.80769" height="42.32001" rx="4" fill="#fff" fill-opacity="0.75" stroke="none" stroke-width="0" stroke-opacity="0" transform="translate(-1,-48)"></rect>
<text id="label7" class="for_r7" text-anchor="start" x="429.77621" y="203.63907" font-weight="400" font-size="14.4px" dy="-5.52" transform="translate(-1,-48)">Admin and Central Costs<tspan x="429.77621" dy="19.32" font-weight="400" font-size="17.6px">£22,808</tspan></text>
<rect id="label8_bg" class="for_r8" x="424.11137" y="232.0986" width="74.56071" height="42.32001" rx="4" fill="#fff" fill-opacity="0.75" stroke="none" stroke-width="0" stroke-opacity="0" transform="translate(0,-23)"></rect>
<text id="label8" class="for_r8" text-anchor="start" x="429.77621" y="253.61861" font-weight="400" font-size="14.4px" dy="-5.52" transform="translate(0,-23)">Site Cost<tspan x="429.77621" dy="19.32" font-weight="400" font-size="17.6px">£32,400</tspan></text>
<rect id="label9_bg" class="for_r9" x="424.11137" y="297.08368" width="197.24519" height="42.31998" rx="4" fill="#fff" fill-opacity="0.75" stroke="none" stroke-width="0" stroke-opacity="0" transform="translate(0,31)"></rect>
<text id="label9" class="for_r9" text-anchor="start" x="429.77621" y="318.60366" font-weight="400" font-size="14.4px" dy="-5.52" transform="translate(0,31)">Food and Food Infrastructure<tspan x="429.77621" dy="19.32" font-weight="400" font-size="17.6px">£84,200</tspan></text>
<rect id="label10_bg" class="for_r10" x="424.11137" y="354.88272" width="76.35453" height="42.31998" rx="4" fill="#fff" fill-opacity="0.75" stroke="none" stroke-width="0" stroke-opacity="0" transform="translate(0,19)"></rect>
<text id="label10" class="for_r10" text-anchor="start" x="429.77621" y="376.40272" font-weight="400" font-size="14.4px" dy="-5.52" transform="translate(0,19)">Pre-Camp<tspan x="429.77621" dy="19.32" font-weight="400" font-size="17.6px">£3,000</tspan></text>
<rect id="label11_bg" class="for_r11" x="424.11137" y="394.47241" width="162.82331" height="42.31998" rx="4" fill="#fff" fill-opacity="0.75" stroke="none" stroke-width="0" stroke-opacity="0" transform="translate(0,16)"></rect>
<text id="label11" class="for_r11" text-anchor="start" x="429.77621" y="415.9924" font-weight="400" font-size="14.4px" dy="-5.52" transform="translate(0,16)">Café and Bar Expenses<tspan x="429.77621" dy="19.32" font-weight="400" font-size="17.6px">£9,700</tspan></text>
<rect id="label12_bg" class="for_r12" x="424.11137" y="435.99301" width="154.80769" height="42.31998" rx="4" fill="#fff" fill-opacity="0.75" stroke="none" stroke-width="0" stroke-opacity="0" transform="translate(0,12)"></rect>
<text id="label12" class="for_r12" text-anchor="start" x="429.77621" y="457.51301" font-weight="400" font-size="14.4px" dy="-5.52" transform="translate(0,12)">Organisation Meetings<tspan x="429.77621" dy="19.32" font-weight="400" font-size="17.6px">£10,900</tspan></text>
<rect id="label13_bg" class="for_r13" x="424.11137" y="480.52002" width="74.56071" height="42.32001" rx="4" fill="#fff" fill-opacity="0.75" stroke="none" stroke-width="0" stroke-opacity="0" transform="translate(0,7)"></rect>
<text id="label13" class="for_r13" text-anchor="start" x="429.77621" y="502.04" font-weight="400" font-size="14.4px" dy="-5.52" transform="translate(0,7)">Toilets<tspan x="429.77621" dy="19.32" font-weight="400" font-size="17.6px">£22,000</tspan></text>
<rect id="label14_bg" class="for_r14" x="424.11137" y="525.56024" width="74.56071" height="42.32001" rx="4" fill="#fff" fill-opacity="0.75" stroke="none" stroke-width="0" stroke-opacity="0"></rect>
<text id="label14" class="for_r14" text-anchor="start" x="429.77621" y="547.08027" font-weight="400" font-size="14.4px" dy="-5.52">Showers<tspan x="429.77621" dy="19.32" font-weight="400" font-size="17.6px">£13,000</tspan></text>
<rect id="label15_bg" class="for_r15" x="424.11137" y="579.19196" width="94.76081" height="42.32001" rx="4" fill="#fff" fill-opacity="0.75" stroke="none" stroke-width="0" stroke-opacity="0"></rect>
<text id="label15" class="for_r15" text-anchor="start" x="429.77621" y="600.71195" font-weight="400" font-size="14.4px" dy="-5.52">Site Services<tspan x="429.77621" dy="19.32" font-weight="400" font-size="17.6px">£57,150</tspan></text>
<rect id="label16_bg" class="for_r16" x="424.11137" y="636.0011" width="85.96391" height="42.32001" rx="4" fill="#fff" fill-opacity="0.75" stroke="none" stroke-width="0" stroke-opacity="0"></rect>
<text id="label16" class="for_r16" text-anchor="start" x="429.77621" y="657.52111" font-weight="400" font-size="14.4px" dy="-5.52">Programme<tspan x="429.77621" dy="19.32" font-weight="400" font-size="17.6px">£26,000</tspan></text>
<rect id="label17_bg" class="for_r17" x="424.11137" y="713.97711" width="96.38581" height="42.32001" rx="4" fill="#fff" fill-opacity="0.75" stroke="none" stroke-width="0" stroke-opacity="0" transform="translate(0,9)"></rect>
<text id="label17" class="for_r17" text-anchor="start" x="429.77621" y="735.49714" font-weight="400" font-size="14.4px" dy="-5.52" transform="translate(0,9)">People Costs<tspan x="429.77621" dy="19.32" font-weight="400" font-size="17.6px">£143,750</tspan></text>
<rect id="label18_bg" class="for_r18" x="424.11137" y="786.82031" width="90.79203" height="42.32001" rx="4" fill="#fff" fill-opacity="0.75" stroke="none" stroke-width="0" stroke-opacity="0" transform="translate(0,63)"></rect>
<text id="label18" class="for_r18" text-anchor="start" x="429.77621" y="808.34033" font-weight="400" font-size="14.4px" dy="-5.52" transform="translate(0,63)">Contingency<tspan x="429.77621" dy="19.32" font-weight="400" font-size="17.6px">£5,000</tspan></text>
<rect id="label19_bg" class="for_r19" x="424.11137" y="833.4718" width="74.56071" height="42.32001" rx="4" fill="#fff" fill-opacity="0.75" stroke="none" stroke-width="0" stroke-opacity="0" transform="translate(-3,71)"></rect>
<text id="label19" class="for_r19" text-anchor="start" x="429.77621" y="854.99183" font-weight="400" font-size="14.4px" dy="-5.52" transform="translate(-3,71)">Surplus<tspan x="429.77621" dy="19.32" font-weight="400" font-size="17.6px">£36,592</tspan></text>
</g>
</g></svg>